<svg xmlns="http://www.w3.org/2000/svg" fill="none" viewBox="0 0 28 29"><path fill="currentColor" d="m22 10.009-6.902 8.103c-2.038 2.391-3.057 3.587-4.203 3.365-1.147-.223-1.643-1.714-2.637-4.694L7.5 14.509l14.5-8.5z" opacity=".32"/><path fill="currentColor" d="m23.81 9.427-2.315 10.548c-.448 2.043-.672 3.064-1.437 3.35s-1.605-.338-3.283-1.586l-5.062-3.764c-.446-.332-.67-.498-.682-.732s.19-.423.597-.802l4.131-3.85c2.154-2.007 3.23-3.01 3.032-3.263s-1.43.553-3.892 2.165L8.79 15.492c-.388.254-.582.381-.805.412-.222.03-.443-.038-.887-.177l-.2-.062C4.034 14.769 2.6 14.32 2.574 13.43c-.027-.89 1.376-1.423 4.183-2.49l13.058-4.96c2.285-.868 3.428-1.303 4.105-.719.677.585.415 1.779-.11 4.167"/></svg>
